# xmcd CD database file
#
# Track frame offsets:
#	150
#	10892
#	16600
#	24260
#	32460
#	42097
#	61740
#	71620
#	81585
#	96515
#	104320
#	114145
#	124280
#	131592
#	136557
#	149765
#	166312
#
# Disc length: 2325 seconds
#
# Revision: 2
# Processed by: cddbd v1.5.2PL0 Copyright (c) Steve Scherf et al.
# Submitted via: CDex 1.70beta3
#
DISCID=d8091311
DTITLE=所 ジョージ - 「デジタル所さん」サウンドトラック電脳音楽集 弐
DYEAR=2001
DGENRE=Blues
TTITLE0=魚釣りとYシャツのボタン(挿入歌・リミックス版)
TTITLE1=大谷 幸/UNDER BRUSH
TTITLE2=大谷 幸/THE AGENT
TTITLE3=大谷 幸/GHOST DANCE
TTITLE4=大谷 幸/DON'T BE SELFISH
TTITLE5=チョコレートを買いに(テーマソング)
TTITLE6=大谷 幸/ON A STORMY NIGHT
TTITLE7=大谷 幸/A JUDGE
TTITLE8=ずっとずっと(挿入歌・オリジナル版)
TTITLE9=大谷 幸/悠久
TTITLE10=大谷 幸/SPIRAL SMOKE
TTITLE11=いつかは販売機(挿入歌・リミックス版)
TTITLE12=大谷 幸/A QUEEN BIRD
TTITLE13=大谷 幸/SPELL
TTITLE14=魚釣りとYシャツのボタン(挿入歌・オリジナル版)
TTITLE15=いつかは販売機(挿入歌・オリジナル版)
TTITLE16=インストゥルメンタル後悔してます(インストゥルメンタル)
EXTD=YEAR: 2001
EXTT0=
EXTT1=
EXTT2=
EXTT3=
EXTT4=
EXTT5=
EXTT6=
EXTT7=
EXTT8=
EXTT9=
EXTT10=
EXTT11=
EXTT12=
EXTT13=
EXTT14=
EXTT15=
EXTT16=
PLAYORDER=
